<svg width="570" height="186" viewBox="0 0 570 186" fill="none" xmlns="http://www.w3.org/2000/svg">
  <path opacity="0.5" fill-rule="evenodd" clip-rule="evenodd" d="M490.986 38.3695C494.978 40.2041 494.028 40.2066 500.485 35.463C506.15 31.3532 502.956 31.6708 509.674 33.1288C515.604 34.3516 524.933 34.6846 529.601 35.7619C529.254 39.4548 520.222 54.4724 518.597 59.9337C519.87 60.0941 520.896 60.2234 522.286 60.3986C524.482 60.6752 523.984 60.857 525.88 58.7996C529.847 54.2313 542.449 39.7859 545.194 37.4822C549.938 37.9577 562.47 39.7814 566.15 38.4379C567.881 37.6913 570.653 36.1112 569.399 34.0236C566.16 29.0366 555.483 29.2537 548.307 28.5941C545.423 28.2307 546.14 28.1987 544.58 25.5972C542.947 22.7419 531.754 1.91475 530.451 1.15273C529.895 0.960325 525.956 0.586344 525.268 0.499586C525.466 2.69856 526.003 4.92672 526.539 7.16825L529.465 20.187C530.031 22.1878 530.523 24.777 530.868 26.75C527.545 26.2089 524.178 25.907 520.722 25.4715C503.665 23.3222 507.96 27.3555 501.813 20.317C498.453 16.4016 497.612 13.7547 493.475 15.8967C497.054 24.6768 496.454 31.2184 490.986 38.3695ZM490.667 26.0325C492.425 26.0094 492.666 28.8116 490.646 28.924L487.833 28.9364C486.06 29.0798 485.717 26.1425 487.724 26.0286L490.667 26.0325ZM221.936 185.061C220.775 186.844 218.422 185.094 219.436 183.536L220.319 182.085C221.465 180.422 223.82 182.159 222.687 183.715L221.936 185.061ZM227.496 176.236C226.349 177.899 223.979 176.282 225.128 174.606L226.729 172.159C227.759 170.481 230.114 172.218 229.099 173.775L227.496 176.236ZM233.996 166.443C232.981 168.001 230.481 166.476 231.627 164.814L233.333 162.379C234.348 160.822 236.731 162.331 235.686 164.129L233.996 166.443ZM240.816 156.936C239.552 158.583 237.345 156.62 238.463 155.185L240.285 152.765C241.549 151.117 243.639 153.066 242.523 154.487L240.816 156.936ZM247.855 147.577C246.606 149.105 244.384 147.262 245.632 145.735L247.439 143.435C248.571 141.893 250.91 143.75 249.662 145.278L247.855 147.577ZM255.216 138.382C254.1 139.804 251.745 138.067 252.993 136.54L254.918 134.255C256.034 132.833 258.389 134.57 257.008 136.203L255.216 138.382ZM262.767 129.564C261.417 130.957 259.459 128.903 260.692 127.496L262.601 125.331C263.951 123.939 266.027 126.007 264.677 127.4L262.767 129.564ZM270.641 120.909C269.291 122.302 267.333 120.248 268.67 118.854L270.696 116.704C272.046 115.311 273.989 117.486 272.655 118.758L270.641 120.909ZM278.453 112.858C277.339 113.315 276.199 112.207 276.451 111.043C276.423 110.319 277.115 109.442 277.948 109.424L279.021 108.35C280.355 107.078 282.431 109.147 280.977 110.526L280.697 110.858L281.137 111.035C282.892 111.977 281.392 114.56 279.754 113.633L278.453 112.858ZM287.349 104.576C285.778 105.832 284.084 103.567 285.525 102.294L287.639 100.387C289.21 99.0222 290.904 101.396 289.478 102.548L287.349 104.576ZM296.158 96.8812C294.706 98.1385 292.776 95.8572 294.333 94.5996L296.565 92.7067C298.017 91.4494 299.829 93.7159 298.389 94.9883L296.158 96.8812ZM305.155 89.577C303.496 90.6995 301.936 88.2066 303.463 87.1897L305.679 85.4173C307.353 84.1744 308.913 86.6672 307.488 87.8192L305.155 89.577ZM314.472 82.5577C312.917 83.6933 311.238 81.3077 312.78 80.1705L315.23 78.4275C316.772 77.2902 318.449 79.7978 316.79 80.9203L314.472 82.5577ZM323.952 76.0344C322.529 77.0644 320.85 74.6788 322.507 73.5696L324.942 71.947C326.718 70.8392 328.014 73.5434 326.385 74.4251L323.952 76.0344ZM333.869 69.8108C332.108 70.7982 330.797 68.2144 332.426 67.3326L334.845 65.8304C336.606 64.843 337.917 67.4267 336.288 68.3085L333.869 69.8108ZM343.843 64.07C342.331 64.9665 340.772 62.4737 342.531 61.4996C343.41 61.0126 344.292 60.5122 345.156 60.1456C346.668 59.2491 348.228 61.7419 346.469 62.716C345.602 63.2046 344.736 63.5846 343.843 64.07ZM354.123 58.7346C352.378 59.6016 351.316 56.8183 352.943 56.0586L355.553 54.8249C357.299 53.9578 358.477 56.7559 356.734 57.5009L354.123 58.7346ZM364.564 53.9085C362.95 54.6699 361.652 51.9791 363.515 51.1268L366.227 50.0283C367.841 49.2669 369.138 51.9576 367.275 52.8099L364.564 53.9085ZM375.311 49.4744C373.346 50.1916 372.534 47.3173 374.249 46.6911L376.961 45.5925C378.793 44.9809 379.723 47.8699 378.007 48.4962L375.311 49.4744ZM386.114 45.5365C384.399 46.1628 383.337 43.3795 385.185 42.6475C386.153 42.4026 387.017 42.036 387.985 41.7911C389.7 41.1648 390.645 43.9334 388.812 44.5449C387.948 44.9116 386.98 45.1565 386.114 45.5365ZM397.094 41.9742C395.16 42.4506 394.582 39.6059 396.282 39.1L399.082 38.2435C401.016 37.7671 401.581 40.7188 399.778 41.103L397.094 41.9742ZM408.146 38.8964C406.329 39.3876 405.633 36.5281 407.45 36.0369L410.352 35.3155C412.052 34.8096 412.865 37.6839 410.931 38.1603L408.146 38.8964ZM419.371 36.2209C417.569 36.5917 416.873 33.7322 418.792 33.3762C419.76 33.1312 420.726 32.8997 421.679 32.7752C423.379 32.2693 424.075 35.1288 422.141 35.6052C421.174 35.8367 420.339 35.976 419.371 36.2209ZM430.654 34.0283C428.633 34.2493 428.419 31.3417 430.207 31.0779L433.079 30.5973C434.983 30.3616 435.314 33.2839 433.408 33.533L430.654 34.0283ZM442.01 32.1982C440.104 32.4473 439.775 29.5116 441.68 29.2625L444.537 28.9023C446.323 28.6519 446.772 31.5889 444.866 31.838L442.01 32.1982ZM453.409 30.8627C451.622 31.1131 451.057 28.1614 453.095 27.8066L456.053 27.5815C458.06 27.4676 458.037 30.4811 456.265 30.5025L453.409 30.8627ZM464.791 29.7696C462.901 29.8983 462.805 26.9921 464.695 26.8634L467.521 26.7439C469.529 26.63 469.624 29.5362 467.734 29.6649L464.791 29.7696ZM476.335 29.1724C474.445 29.3011 474.232 26.3802 476.239 26.2662L479.065 26.1468C480.955 26.0181 481.153 29.0594 479.146 29.1734L476.335 29.1724ZM78.0504 95.677C74.4263 98.3591 75.4071 98.1158 68.2095 94.8039C61.8905 91.9559 65.1129 91.5195 58.7796 94.3358C53.0899 96.7576 44.0198 98.9845 39.6791 100.965C40.7399 104.591 52.2324 117.493 54.7671 122.514C53.5367 122.957 52.5689 123.201 51.2346 123.631C49.1381 124.454 49.6058 124.513 47.4737 122.79C42.7813 119.183 27.7411 107.518 24.6698 105.813C20.1694 107.175 8.11876 111.69 4.23876 110.956C2.40918 110.604 -0.517622 109.637 0.366973 107.33C2.59408 101.7 13.143 99.7816 20.0906 97.6406C22.8908 96.7841 22.172 96.9381 23.1177 94.0408C24.2242 90.8105 31.5309 68.2246 32.7072 67.1635C33.1034 66.8466 36.9889 65.6513 37.7208 65.499C37.8019 67.6832 37.7526 69.9597 37.5717 72.2332L37.0527 85.6739C36.7982 87.6936 36.8203 90.3459 36.9188 92.2878C40.1 91.2348 43.2667 90.1935 46.5632 89.1686C62.9669 83.5178 59.4391 88.2637 64.2055 80.1818C66.8824 75.6956 67.1245 72.8319 71.647 74.1219C69.6303 83.5286 71.4153 89.7864 78.0504 95.677ZM76.1914 83.5129C74.3894 83.8837 74.7341 86.699 76.7548 86.478L79.5246 85.8623C81.1962 85.5838 80.9819 82.6762 78.9612 82.8972L76.1914 83.5129ZM368.399 185.186C369.728 186.685 371.638 184.507 370.41 183.157L369.373 182.061C367.927 180.548 366.017 182.726 367.244 184.089L368.399 185.186ZM361.271 177.657C362.615 179.036 364.627 176.993 363.4 175.629L361.34 173.44C359.996 172.062 357.968 174.225 359.314 175.59L361.271 177.657ZM353.177 169.409C354.404 170.773 356.534 168.745 355.203 167.259L353.128 165.19C351.769 163.932 349.639 165.96 351.1 167.354L353.177 169.409ZM344.822 161.358C346.282 162.752 348.118 160.333 346.731 159.194L344.523 157.231C343.063 155.837 341.225 158.269 342.614 159.395L344.822 161.358ZM336.186 153.639C337.662 154.912 339.483 152.615 338.111 151.355L335.888 149.512C334.412 148.239 332.501 150.417 333.977 151.69L336.186 153.639ZM327.417 146.148C328.791 147.286 330.701 145.122 329.108 143.834L326.885 141.991C325.511 140.854 323.602 143.018 325.078 144.291L327.417 146.148ZM318.253 138.961C319.978 140.143 321.463 137.68 320.076 136.541L317.721 134.804C316.113 133.636 314.511 136.084 316.015 137.238L318.253 138.961ZM309.044 132.134C310.667 133.181 312.152 130.719 310.645 129.686L308.292 127.936C306.669 126.889 305.067 129.337 306.691 130.384L309.044 132.134ZM299.438 125.625C301.061 126.672 302.663 124.224 301.042 123.055L298.659 121.545C297.152 120.513 295.449 122.826 297.057 123.993L299.438 125.625ZM289.801 119.465C291.557 120.406 292.823 117.794 291.184 116.867L288.684 115.343C287.046 114.416 285.663 117.014 287.301 117.94L289.801 119.465ZM269.664 108.245C271.551 109.08 272.482 106.303 270.93 105.632L268.282 104.334C266.395 103.498 265.464 106.275 267.016 106.946L269.664 108.245ZM259.277 103.322C260.931 104.128 262.096 101.38 260.442 100.574L257.779 99.3962C255.995 98.6823 254.831 101.43 256.615 102.144L259.277 103.322ZM248.714 98.8653C250.265 99.5364 251.647 96.9522 249.761 96.1032L247.083 95.0456C245.064 94.3156 244.353 97.2289 246.036 97.8078L248.714 98.8653ZM238.002 94.7437C239.801 95.3373 240.615 92.5457 238.932 91.9668L236.123 91.0149C234.323 90.4213 233.393 93.1983 235.179 93.7902L238.002 94.7437ZM227.086 91.1943C228.768 91.7731 229.816 89.011 227.915 88.2823C227.008 88.0457 225.999 87.674 225.09 87.4507C223.408 86.8719 222.36 89.6341 224.261 90.3627C225.17 90.586 226.194 90.8373 227.086 91.1943ZM216.021 87.9929C217.952 88.4808 218.56 85.541 216.731 85.1881L214.009 84.4783C212.078 83.9904 211.47 86.9302 213.299 87.2831L216.021 87.9929ZM204.869 85.3783C206.698 85.7312 207.408 82.9264 205.477 82.4385L202.623 81.8343C200.925 81.3759 200.097 84.2879 202.132 84.7889L204.869 85.3783ZM193.684 83.1265C195.63 83.4941 195.888 80.5101 194.16 80.2924L191.291 79.8086C189.344 79.441 188.97 82.4103 190.815 82.6428L193.684 83.1265ZM182.295 81.4469C184.14 81.6794 184.631 78.7248 182.669 78.4776C181.747 78.3614 180.707 78.2304 179.785 78.1142C178.057 77.8965 177.449 80.8363 179.411 81.0835C180.463 81.2161 181.373 81.3307 182.295 81.4469ZM170.858 80.2504C172.967 80.2716 172.976 77.3785 171.116 77.2664L168.333 77.0381C166.357 76.9113 166.216 79.9101 168.076 80.0221L170.858 80.2504ZM159.495 79.4164C161.355 79.5285 161.495 76.5297 159.635 76.4177L156.721 76.295C154.861 76.183 154.721 79.1817 156.581 79.2938L159.495 79.4164ZM148.058 79.0623C149.801 79.1596 150.058 76.1756 148.066 76.1692C147.128 76.1733 146.074 76.1628 145.136 76.1669C143.393 76.0696 143.136 79.0536 145.128 79.06C146.066 79.0559 147.003 79.0517 148.058 79.0623ZM136.575 79.1779C138.582 79.064 138.251 76.1417 136.479 76.2717L133.536 76.2678C131.631 76.5169 131.844 79.4378 133.617 79.2944L136.575 79.1779ZM125.018 79.7735C126.908 79.6448 126.826 76.6315 124.937 76.7469L121.979 76.972C120.206 77.1154 120.302 80.0216 122.192 79.8929L125.018 79.7735ZM113.665 80.6392C115.423 80.6162 115.341 77.6029 113.335 77.7035L110.479 78.0637C108.456 78.2981 109.021 81.2498 110.808 80.9994L113.665 80.6392ZM102.25 82.0951C104.169 81.739 103.723 78.7886 101.804 79.1447L98.9472 79.5049C97.0435 79.7406 97.49 82.691 99.3937 82.4553L102.25 82.0951ZM90.7924 83.7901C92.6961 83.5544 92.3817 80.4983 90.3459 80.8397L87.5912 81.335C85.8044 81.5854 86.017 84.5064 88.0377 84.2854L90.7924 83.7901Z" fill="white"/>
</svg>